<?xml version="1.0" standalone="no"?>
<!DOCTYPE svg PUBLIC "-//W3C//DTD SVG 20010904//EN"
 "http://www.w3.org/TR/2001/REC-SVG-20010904/DTD/svg10.dtd">
<svg version="1.0" xmlns="http://www.w3.org/2000/svg"
 width="192.000000pt" height="192.000000pt" viewBox="0 0 192.000000 192.000000"
 preserveAspectRatio="xMidYMid meet">
<metadata>
Created by potrace 1.14, written by Peter Selinger 2001-2017
</metadata>
<g transform="translate(0.000000,192.000000) scale(0.100000,-0.100000)"
fill="#000000" stroke="none">
<path d="M199 1908 c-1 -16 -1 -91 0 -99 1 -3 345 -6 766 -6 l765 0 0 58 0 59
-765 0 c-605 0 -765 -3 -766 -12z"/>
<path d="M199 1521 c0 -20 -2 -44 -4 -53 -2 -10 1 -21 7 -24 5 -3 70 -8 144
-11 154 -5 190 -16 231 -70 l28 -36 3 -323 3 -322 112 -100 c62 -55 123 -112
136 -126 l25 -26 -40 -41 c-40 -41 -136 -94 -189 -104 -53 -10 -168 -15 -187
-9 -16 5 -18 18 -18 135 l0 130 -57 -3 -58 -3 0 -175 0 -174 45 -13 c79 -23
234 -22 311 2 12 4 25 -8 43 -39 48 -83 141 -136 236 -136 88 0 193 65 226
140 19 42 12 41 114 21 64 -13 208 -3 264 19 22 8 22 12 22 182 l-1 173 -57 3
c-42 2 -58 -1 -59 -10 0 -7 -1 -67 -2 -133 l-2 -120 -69 -1 c-38 0 -90 3 -115
8 -68 12 -163 62 -210 110 l-40 42 29 26 c17 15 47 42 67 61 21 19 70 64 108
98 l70 64 1 311 c1 335 3 343 56 393 44 41 86 48 331 52 26 1 27 2 27 60 l0
58 -135 -2 c-74 -2 -149 -7 -167 -10 -57 -13 -124 -53 -162 -96 -63 -74 -68
-104 -68 -427 l0 -287 -113 -102 c-62 -57 -117 -103 -122 -103 -4 0 -33 23
-63 51 -30 28 -81 73 -112 101 l-57 50 -3 302 -3 301 -28 57 c-41 83 -122 142
-215 154 -20 2 -92 6 -159 8 l-123 4 -1 -37z m805 -1219 c22 -20 55 -47 71
-59 29 -21 29 -23 15 -50 -52 -95 -192 -96 -249 -2 l-19 32 59 44 c33 24 62
50 65 58 8 21 12 20 58 -23z"/>
</g>
</svg>
