<?xml version="1.0"?>
<svg xmlns="http://www.w3.org/2000/svg" xmlns:xlink="http://www.w3.org/1999/xlink" xmlns:svgjs="http://svgjs.com/svgjs" version="1.1" width="512" height="512" x="0" y="0" viewBox="0 0 64 64" style="enable-background:new 0 0 512 512" xml:space="preserve" class=""><g transform="matrix(0.74,0,0,0.74,8.32,8.32)"><circle xmlns="http://www.w3.org/2000/svg" cx="16" cy="13" fill="#f07281" r="11" data-original="#69d6f4" style="" class=""/><path xmlns="http://www.w3.org/2000/svg" d="m38 20v-7-3h24v10c0 1.1-.9 2-2 2h-10-10c-1.1 0-2-.9-2-2z" fill="#e6e9ed" data-original="#e6e9ed" style="" class=""/><path xmlns="http://www.w3.org/2000/svg" d="m62 4v6h-24v-2c0-1.1.9-2 2-2h9l2.4-3.2c.38-.5.97-.8 1.6-.8h7c1.1 0 2 .9 2 2z" fill="#3f6e90" data-original="#ff826e" style="" class=""/><circle xmlns="http://www.w3.org/2000/svg" cx="50" cy="50" fill="#1abc9c" r="12" data-original="#5cd6b3" style="" class=""/><path xmlns="http://www.w3.org/2000/svg" d="m58.79 58.17c-2.19 2.36-5.32 3.83-8.79 3.83s-6.6-1.47-8.79-3.83c.83-3.54 4-6.17 7.79-6.17h1 1c3.79 0 6.96 2.63 7.79 6.17z" fill="#3f6e90" data-original="#ff826e" style="" class=""/><circle xmlns="http://www.w3.org/2000/svg" cx="50" cy="47" fill="#f0d0b4" r="5" data-original="#f0d0b4" style="" class=""/><path xmlns="http://www.w3.org/2000/svg" d="m30 51v6c0 2.76-6.27 5-14 5s-14-2.24-14-5v-6c0 2.76 6.27 5 14 5s14-2.24 14-5z" fill="#ffeaa7" data-original="#ffeaa7" style="" class=""/><path xmlns="http://www.w3.org/2000/svg" d="m16 44c7.73 0 14-2.69 14-6v7c0 2.76-6.27 5-14 5s-14-2.24-14-5v-7c0 3.31 6.27 6 14 6z" fill="#ffeaa7" data-original="#ffeaa7" style="" class=""/><path xmlns="http://www.w3.org/2000/svg" d="m30 50v1c0 2.76-6.27 5-14 5s-14-2.24-14-5v-6c0 2.76 6.27 5 14 5s14-2.24 14-5z" fill="#f9d070" data-original="#fcd770" style="" class=""/><path xmlns="http://www.w3.org/2000/svg" d="m30 38c0 3.31-6.27 6-14 6s-14-2.69-14-6 6.27-6 14-6 14 2.69 14 6z" fill="#f9d070" data-original="#fcd770" style="" class=""/><path xmlns="http://www.w3.org/2000/svg" d="m21 36c1.1 0 2 .9 2 2 0 .55-.22 1.05-.59 1.41-.36.37-.86.59-1.41.59h-10c-1.1 0-2-.9-2-2 0-.55.22-1.05.59-1.41.36-.37.86-.59 1.41-.59z" fill="#1abc9c" data-original="#5cd6b3" style="" class=""/><path xmlns="http://www.w3.org/2000/svg" d="m11 41h10c1.654 0 3-1.346 3-3s-1.346-3-3-3h-10c-1.654 0-3 1.346-3 3s1.346 3 3 3zm0-4h10c.552 0 1 .448 1 1s-.448 1-1 1h-10c-.552 0-1-.448-1-1s.448-1 1-1z" fill="#000000" data-original="#000000" style="" class=""/><path xmlns="http://www.w3.org/2000/svg" d="m60 23c1.654 0 3-1.346 3-3v-16c0-1.654-1.346-3-3-3h-7c-.94 0-1.837.449-2.399 1.2l-2.101 2.8h-8.5c-1.654 0-3 1.346-3 3v4h-9.051c-.511-6.149-5.669-11-11.949-11-6.617 0-12 5.383-12 12 0 6.279 4.85 11.438 11 11.949v6.073c-8.046.226-14 3.146-14 6.978v19c0 3.897 7.729 6 15 6s15-2.103 15-6v-6h6.051c.514 6.701 6.119 12 12.949 12 7.168 0 13-5.832 13-13 0-6.83-5.299-12.435-12-12.949v-14.051zm0-2h-20c-.552 0-1-.449-1-1v-9h22v9c0 .551-.448 1-1 1zm-20-14h9.5l2.701-3.601c.187-.25.486-.399.799-.399h7c.552 0 1 .449 1 1v5h-22v-1c0-.551.448-1 1-1zm-34 6c0-1.045.163-2.052.461-3h3.841c-.185.934-.302 1.93-.302 3s.117 2.066.303 3h-3.842c-.298-.948-.461-1.955-.461-3zm6 0c0-1.079.138-2.076.354-3h7.296c.214.923.35 1.92.35 3 0 1.079-.138 2.076-.354 3h-7.296c-.214-.923-.35-1.92-.35-3zm4.002-9.629c.777.79 2.104 2.367 3.018 4.629h-6.034c.916-2.256 2.242-3.836 3.016-4.629zm3.012 14.629c-.916 2.257-2.242 3.837-3.016 4.629-.777-.79-2.104-2.367-3.018-4.629zm2.153 0h3.48c-1.302 2.242-3.445 3.929-5.998 4.633.875-1.128 1.846-2.678 2.518-4.633zm4.833-5c0 1.045-.162 2.052-.461 3h-3.841c.185-.934.302-1.93.302-3s-.117-2.066-.303-3h3.841c.3.948.462 1.955.462 3zm-1.353-5h-3.48c-.672-1.955-1.643-3.505-2.518-4.633 2.553.704 4.696 2.391 5.998 4.633zm-11.296-4.633c-.875 1.128-1.846 2.678-2.518 4.633h-3.48c1.302-2.242 3.445-3.929 5.998-4.633zm-5.998 14.633h3.48c.672 1.955 1.643 3.505 2.518 4.633-2.553-.704-4.696-2.391-5.998-4.633zm8.647 15c7.661 0 13 2.635 13 5s-5.339 5-13 5-13-2.635-13-5 5.339-5 13-5zm-13 8.583c2.544 2.074 7.298 3.417 13 3.417s10.456-1.343 13-3.417v3.417c0 1.631-5.064 4-13 4s-13-2.369-13-4zm0 6.524c2.767 1.895 7.991 2.893 13 2.893s10.233-.998 13-2.893v2.893c0 1.631-5.064 4-13 4s-13-2.369-13-4zm13 12.893c-7.936 0-13-2.369-13-4v-2.893c2.767 1.895 7.991 2.893 13 2.893s10.233-.998 13-2.893v2.893c0 1.631-5.064 4-13 4zm26.35-3.112c.915-2.897 3.564-4.888 6.65-4.888h2c3.088 0 5.737 1.991 6.65 4.888-1.982 1.922-4.678 3.112-7.65 3.112s-5.668-1.19-7.65-3.112zm7.65-6.888c-2.206 0-4-1.794-4-4s1.794-4 4-4 4 1.794 4 4-1.794 4-4 4zm11-1c0 2.27-.692 4.381-1.874 6.135-1.035-2.194-2.9-3.858-5.165-4.639 1.247-1.101 2.039-2.706 2.039-4.496 0-3.309-2.691-6-6-6s-6 2.691-6 6c0 1.79.792 3.395 2.04 4.496-2.265.782-4.129 2.446-5.165 4.639-1.183-1.754-1.875-3.865-1.875-6.135 0-6.065 4.935-11 11-11s11 4.935 11 11zm-12-12.949c-6.37.488-11.461 5.579-11.949 11.949h-6.051v-11c0-3.832-5.954-6.752-14-6.978v-6.073c5.819-.484 10.466-5.13 10.949-10.949h9.051v6c0 1.654 1.346 3 3 3h9z" fill="#000000" data-original="#000000" style="" class=""/><path xmlns="http://www.w3.org/2000/svg" d="m57 5h2v2h-2z" fill="#000000" data-original="#000000" style="" class=""/><path xmlns="http://www.w3.org/2000/svg" d="m53 5h2v2h-2z" fill="#000000" data-original="#000000" style="" class=""/><path xmlns="http://www.w3.org/2000/svg" d="m41 17h2v2h-2z" fill="#000000" data-original="#000000" style="" class=""/><path xmlns="http://www.w3.org/2000/svg" d="m45 17h2v2h-2z" fill="#000000" data-original="#000000" style="" class=""/><path xmlns="http://www.w3.org/2000/svg" d="m49 17h2v2h-2z" fill="#000000" data-original="#000000" style="" class=""/><path xmlns="http://www.w3.org/2000/svg" d="m17 12h2v2h-2z" fill="#000000" data-original="#000000" style="" class=""/><path xmlns="http://www.w3.org/2000/svg" d="m13 12h2v2h-2z" fill="#000000" data-original="#000000" style="" class=""/></g></svg>
