<?xml version="1.0"?>
<svg xmlns="http://www.w3.org/2000/svg" xmlns:xlink="http://www.w3.org/1999/xlink" xmlns:svgjs="http://svgjs.com/svgjs" version="1.1" width="512" height="512" x="0" y="0" viewBox="0 0 60 60" style="enable-background:new 0 0 512 512" xml:space="preserve" class=""><g transform="matrix(0.7500000000000001,0,0,0.7500000000000001,7.499999910593029,7.500811204314228)"><g xmlns="http://www.w3.org/2000/svg" id="Page-1" fill="none" fill-rule="evenodd"><g id="031---University" fill-rule="nonzero"><g id="colour" transform="translate(1)"><path id="Shape" d="m15 54h28v4c0 .5522847-.4477153 1-1 1h-26c-.5522847 0-1-.4477153-1-1z" fill="#ccced5" data-original="#808d93" style="" class=""/><path id="Shape" d="m40 54v4c0 .5522847-.4477153 1-1 1h3c.5522847 0 1-.4477153 1-1v-4z" fill="#ccced5" data-original="#545c60" style="" class=""/><path id="Shape" d="m15 58h-14c-.55228475 0-1-.4477153-1-1v-2c0-.5522847.44771525-1 1-1h14z" fill="#ccced5" data-original="#627d8b" style="" class=""/><path id="Shape" d="m43 58h14c.5522847 0 1-.4477153 1-1v-2c0-.5522847-.4477153-1-1-1h-14z" fill="#ccced5" data-original="#627d8b" style="" class=""/><path id="Shape" d="m57 54h-3c.5522847 0 1 .4477153 1 1v2c0 .5522847-.4477153 1-1 1h3c.5522847 0 1-.4477153 1-1v-2c0-.5522847-.4477153-1-1-1z" fill="#ccced5" data-original="#384750" style="" class=""/><path id="Rectangle-path" d="m17 30h24v24h-24z" fill="#f9d070" data-original="#ffe800" style="" class=""/><path id="Rectangle-path" d="m38 30h3v24h-3z" fill="#f9d070" data-original="#fbd500" style="" class=""/><path id="Shape" d="m45 22v3c0 .5522847-.4477153 1-1 1h-30c-.5522847 0-1-.4477153-1-1v-3z" fill="#f07281" data-original="#f85600" style="" class=""/><path id="Shape" d="m42 22v3c0 .5522847-.4477153 1-1 1h3c.5522847 0 1-.4477153 1-1v-3z" fill="#f07281" data-original="#d24200" style="" class=""/><path id="Shape" d="m45 22h-32l4.4-5.28c.380713-.4570802.9451355-.7209661 1.54-.72h19.23c.5330446-.0004224 1.0442036.2119606 1.42.59z" fill="#f07281" data-original="#f85600" style="" class=""/><path id="Shape" d="m39.59 16.59c-.3757964-.3780394-.8869554-.5904224-1.42-.59l-3-.0000006c.5330446-.0004218 1.0442036.2119612 1.42.5900006l5.41 5.41h3z" fill="#f07281" data-original="#d24200" style="" class=""/><path id="Rectangle-path" d="m15 26h28v4h-28z" fill="#f9d070" data-original="#fdd900" style="" class=""/><path id="Rectangle-path" d="m40 26h3v4h-3z" fill="#f9d070" data-original="#fbbe00" style="" class=""/><path id="Rectangle-path" d="m41 30h16v24h-16z" fill="#f9d070" data-original="#fdd900" style="" class=""/><path id="Rectangle-path" d="m54 30h3v24h-3z" fill="#f9d070" data-original="#fbbe00" style="" class=""/><path id="Shape" d="m57 30h-14v-4h1c.5522847 0 1-.4477153 1-1v-1h7.76c.758944.0004027 1.45227.4303423 1.79 1.11z" fill="#f07281" data-original="#fa9600" style="" class=""/><path id="Shape" d="m54.55 25.11c-.33773-.6796577-1.031056-1.1095973-1.79-1.11h-3c.758944.0004027 1.45227.4303423 1.79 1.11l2.45 4.89h3z" fill="#f07281" data-original="#ef7b00" style="" class=""/><path id="Rectangle-path" d="m1 30h16v24h-16z" fill="#f9d070" data-original="#fdd900" style="" class=""/><path id="Shape" d="m15 26v4h-14l2.45-4.89c.33773001-.6796577 1.03105603-1.1095973 1.79-1.11h7.76v1c0 .5522847.4477153 1 1 1z" fill="#f07281" data-original="#fa9600" style="" class=""/><path id="Rectangle-path" d="m25 41h8v13h-8z" fill="#3f6e90" data-original="#3e54b8" style="" class=""/><path id="Shape" d="m42.26 6.47-4.26 1.15-8.75 2.38c-.1642822.0398706-.3357178.0398706-.5 0l-8.75-2.38-4.26-1.15c-.4448894-.11149979-.7568951-.51135113-.7568951-.97s.3120057-.85850021.7568951-.97l13-3.5c.1642822-.03987056.3357178-.03987056.5 0l13 3.5c.4461147.10683143.7623317.50349169.7670606.96219525.0047289.45870357-.3032431.86179876-.7470606.97780475z" fill="#3f6e90" data-original="#26aaf7" style="" class=""/><path id="Shape" d="m42.26 4.53-13.01-3.53c-.1642822-.03987056-.3357178-.03987056-.5 0l-1.25.34 11.76 3.19c.4448894.11149979.7568951.51135113.7568951.97s-.3120057.85850021-.7568951.97l-4.26 1.15-7.5 2 1.25.34c.1642822.03987056.3357178.03987056.5 0l8.75-2.34 4.26-1.15c.4448894-.11149979.7568951-.51135113.7568951-.97s-.3120057-.85850021-.7568951-.97z" fill="#1779be" data-original="#1779be" style="" class=""/><path id="Shape" d="m38 7.62v8.38h-18v-8.38l8.75 2.38c.1642822.0398706.3357178.0398706.5 0z" fill="#3f6e90" data-original="#3e54b8" style="" class=""/><path id="Shape" d="m35 8.43v7.57h3v-8.38z" fill="#3f6e90" data-original="#263995" style="" class=""/></g><g id="outline" fill="#000"><path id="Shape" d="m59 53.28v-23.28c-.0044927-.1528851-.0420182-.3029872-.11-.44l-2.44-4.89c-.5059922-1.0230444-1.548664-1.6703536-2.69-1.67h-6.76v-1c.0015368-.265803-.1028135-.5212812-.29-.71l-5.42-5.41c-.3575047-.3578715-.8021222-.6163701-1.29-.75v-6.74l2-.54v2.42c-.0107478 1.0286717.5063291 1.991114 1.37 2.55.1610428.112792.3533994.1722477.55.17.4403997.0009866.8296015-.2862564.9584701-.7073807.1288687-.4211244-.0329363-.8769815-.3984701-1.1226193-.2989299-.1975801-.4791163-.5316758-.48-.89v-3c.6306981-.36396079 1.0137421-1.04194874 1-1.77.0039831-.90756454-.6036371-1.70403969-1.48-1.94l-13.01-3.49c-.3279556-.08467777-.6720444-.08467777-1 0l-13 3.49c-.8897788.22299959-1.5137902 1.02270227-1.5137902 1.94s.6240114 1.71700041 1.5137902 1.94l3.52 1v6.56h-.06c-.8922967-.0014491-1.7389305.3943797-2.31 1.08l-4.4 5.28c-.1599395.1756753-.2521093.4025549-.26.64v1h-6.76c-1.13910141-.0022386-2.18120259.6408424-2.69 1.66l-2.44 4.89c-.06939617.1400552-.10695977.2937245-.11.45v23.28c-.61508907.3551046-.99571308 1.0097779-1 1.72v2c0 1.1045695.8954305 2 2 2h13.28c.3551046.6150891 1.0097779.9957131 1.72 1h26c.7102221-.0042869 1.3648954-.3849109 1.72-1h13.28c1.1045695 0 2-.8954305 2-2v-2c-.0042869-.7102221-.3849109-1.3648954-1-1.72zm-15-.28h-1v-22h14v22zm-11 0h-6v-11h6zm1-13h-8c-.5522847 0-1 .4477153-1 1v12h-6v-22h22v22h-6v-12c0-.5522847-.4477153-1-1-1zm11-17v2h-30v-2zm-2 4v2h-26v-2zm10.76-2c.3801569-.0026457.7289345.2104962.9.55l1.72 3.45h-11.38v-2c1.1045695 0 2-.8954305 2-2zm-23.76-23 13 3.5-13 3.5-13-3.51zm-8 6.92 7.49 2c.3272876.0897828.6727124.0897828 1 0l7.49-2v6.08h-15.98zm-2.83 8.44c.1903565-.2285401.4725678-.360483.77-.36h19.23c.265803-.0015368.5212812.1028135.71.29l3.71 3.71h-27.45zm-13.83 8.19c.17106553-.3395038.51984313-.5526457.9-.55h6.76c0 1.1045695.8954305 2 2 2v2h-11.38zm-3.34 29.45h13v2h-13zm14-2h-13v-22h14v22zm1 5v-3h26v3zm41-1h-13v-2h13z" fill="#000000" data-original="#000000" style="" class=""/><path id="Shape" d="m27 33c-.5522847 0-1 .4477153-1 1v2c0 .5522847.4477153 1 1 1s1-.4477153 1-1v-2c0-.5522847-.4477153-1-1-1z" fill="#000000" data-original="#000000" style="" class=""/><path id="Shape" d="m13 34c-.5522847 0-1 .4477153-1 1v2c0 .5522847.4477153 1 1 1s1-.4477153 1-1v-2c0-.5522847-.4477153-1-1-1z" fill="#000000" data-original="#000000" style="" class=""/><path id="Shape" d="m7 34c-.55228475 0-1 .4477153-1 1v2c0 .5522847.44771525 1 1 1s1-.4477153 1-1v-2c0-.5522847-.44771525-1-1-1z" fill="#000000" data-original="#000000" style="" class=""/><path id="Shape" d="m13 40c-.5522847 0-1 .4477153-1 1v2c0 .5522847.4477153 1 1 1s1-.4477153 1-1v-2c0-.5522847-.4477153-1-1-1z" fill="#000000" data-original="#000000" style="" class=""/><path id="Shape" d="m7 40c-.55228475 0-1 .4477153-1 1v2c0 .5522847.44771525 1 1 1s1-.4477153 1-1v-2c0-.5522847-.44771525-1-1-1z" fill="#000000" data-original="#000000" style="" class=""/><path id="Shape" d="m13 46c-.5522847 0-1 .4477153-1 1v2c0 .5522847.4477153 1 1 1s1-.4477153 1-1v-2c0-.5522847-.4477153-1-1-1z" fill="#000000" data-original="#000000" style="" class=""/><path id="Shape" d="m7 46c-.55228475 0-1 .4477153-1 1v2c0 .5522847.44771525 1 1 1s1-.4477153 1-1v-2c0-.5522847-.44771525-1-1-1z" fill="#000000" data-original="#000000" style="" class=""/><path id="Shape" d="m53 34c-.5522847 0-1 .4477153-1 1v2c0 .5522847.4477153 1 1 1s1-.4477153 1-1v-2c0-.5522847-.4477153-1-1-1z" fill="#000000" data-original="#000000" style="" class=""/><path id="Shape" d="m47 34c-.5522847 0-1 .4477153-1 1v2c0 .5522847.4477153 1 1 1s1-.4477153 1-1v-2c0-.5522847-.4477153-1-1-1z" fill="#000000" data-original="#000000" style="" class=""/><path id="Shape" d="m53 40c-.5522847 0-1 .4477153-1 1v2c0 .5522847.4477153 1 1 1s1-.4477153 1-1v-2c0-.5522847-.4477153-1-1-1z" fill="#000000" data-original="#000000" style="" class=""/><path id="Shape" d="m47 40c-.5522847 0-1 .4477153-1 1v2c0 .5522847.4477153 1 1 1s1-.4477153 1-1v-2c0-.5522847-.4477153-1-1-1z" fill="#000000" data-original="#000000" style="" class=""/><path id="Shape" d="m53 46c-.5522847 0-1 .4477153-1 1v2c0 .5522847.4477153 1 1 1s1-.4477153 1-1v-2c0-.5522847-.4477153-1-1-1z" fill="#000000" data-original="#000000" style="" class=""/><path id="Shape" d="m47 46c-.5522847 0-1 .4477153-1 1v2c0 .5522847.4477153 1 1 1s1-.4477153 1-1v-2c0-.5522847-.4477153-1-1-1z" fill="#000000" data-original="#000000" style="" class=""/><path id="Shape" d="m33 33c-.5522847 0-1 .4477153-1 1v2c0 .5522847.4477153 1 1 1s1-.4477153 1-1v-2c0-.5522847-.4477153-1-1-1z" fill="#000000" data-original="#000000" style="" class=""/></g></g></g></g></svg>
